if (_typeface_js && _typeface_js.loadFace) _typeface_js.loadFace({"glyphs":{"S":{"x_min":21.484375,"x_max":651.953125,"ha":692,"o":"m 576 995 q 639 915 620 964 q 648 808 658 866 l 637 739 l 500 761 l 511 830 q 508 866 515 854 q 493 883 501 877 q 443 899 475 897 q 379 884 412 901 q 319 825 340 865 q 299 729 299 786 q 305 681 299 701 q 328 644 312 661 q 365 612 343 627 q 417 579 387 597 q 474 542 444 561 q 526 497 503 523 q 595 341 589 430 q 576 226 597 279 q 515 137 557 179 q 432 83 479 104 q 332 57 385 62 q 315 56 324 57 q 299 56 307 56 q 143 97 210 56 q 67 170 96 125 q 31 270 38 215 l 21 338 l 159 358 l 168 290 q 189 238 172 258 q 229 209 206 219 q 275 195 251 198 q 318 195 299 193 q 363 205 339 197 q 409 229 388 213 q 444 271 431 245 q 456 333 457 297 q 425 402 453 376 q 343 461 397 427 q 282 500 314 479 q 223 552 251 522 q 160 730 158 627 q 204 904 160 830 q 316 1009 246 973 q 450 1037 380 1041 q 576 995 520 1034 "},"/":{"x_min":5.5625,"x_max":604.21875,"ha":610,"o":"m 127 6 l 5 72 l 481 965 l 604 898 l 127 6 "},"K":{"x_min":31.953125,"x_max":751.453125,"ha":788,"o":"m 341 541 q 500 351 409 453 q 693 117 591 249 l 583 33 l 244 440 q 228 358 236 398 q 211 272 220 317 q 192 171 202 226 q 168 48 181 116 l 31 74 l 197 1035 l 336 1019 l 288 682 q 370 760 331 722 q 452 838 409 798 q 543 926 494 879 q 658 1033 593 973 l 751 930 l 341 541 "},"7":{"x_min":37.5,"x_max":659.78125,"ha":667,"o":"m 152 -17 l 37 60 q 102 158 63 98 q 182 292 140 219 q 270 443 225 365 q 355 595 315 522 q 429 732 395 669 q 484 835 463 794 l 72 841 l 72 981 q 235 979 166 981 q 361 976 304 978 q 473 974 419 975 q 594 974 527 974 l 659 882 q 593 746 632 821 q 511 590 555 671 q 422 429 468 509 q 334 275 377 348 q 254 141 291 202 q 191 39 218 80 l 152 -17 "},"d":{"x_min":18.15625,"x_max":630.609375,"ha":664,"o":"m 630 1028 l 494 -11 l 356 5 l 356 11 q 325 4 341 7 q 293 1 309 1 q 285 2 288 1 q 277 2 281 2 q 200 20 237 5 q 130 63 162 36 q 25 245 48 134 q 20 362 13 304 q 55 474 27 420 q 111 561 79 523 q 181 626 144 599 q 344 670 262 678 q 430 641 393 666 q 441 722 436 680 q 454 813 447 765 q 471 920 462 862 q 493 1051 480 978 l 630 1028 m 220 169 q 245 153 230 161 q 279 143 259 145 q 322 147 298 141 q 376 175 347 154 q 379 204 377 190 q 383 233 380 218 q 393 326 388 280 q 404 419 397 372 l 388 473 q 370 511 383 493 q 330 533 358 530 q 255 508 298 536 q 180 413 212 480 q 158 341 162 377 q 161 273 154 305 q 184 214 168 241 q 220 169 200 187 "},",":{"x_min":23.609375,"x_max":226.125,"ha":247,"o":"m 180 162 l 183 159 q 186 155 184 158 q 190 149 187 152 l 194 145 q 197 141 194 141 q 200 135 197 141 q 202 131 200 134 q 203 128 202 128 q 204 124 204 127 q 208 119 208 120 q 209 117 209 117 q 211 115 209 116 q 211 110 211 115 q 213 103 213 108 q 218 88 216 97 q 223 70 220 80 q 225 31 227 54 q 225 27 225 31 l 225 22 q 223 12 223 19 q 222 7 222 9 q 220 2 222 5 q 220 -2 220 0 q 219 -6 219 -4 q 206 -41 213 -26 q 198 -58 202 -51 q 190 -73 194 -66 q 179 -85 184 -80 q 170 -98 175 -91 q 165 -103 168 -103 q 161 -109 162 -109 q 156 -116 158 -113 q 151 -121 154 -119 q 143 -130 144 -126 q 137 -134 140 -133 q 131 -138 134 -135 q 116 -152 122 -148 q 104 -163 112 -157 q 95 -170 100 -166 q 93 -171 94 -171 l 65 -194 l 23 -148 l 45 -121 q 47 -119 45 -120 l 54 -112 q 61 -101 55 -109 q 72 -85 68 -94 q 77 -77 75 -83 q 83 -67 80 -74 q 86 -63 86 -66 q 90 -58 87 -60 q 91 -52 90 -55 q 94 -48 91 -52 l 102 -27 q 106 -17 105 -23 q 109 -6 106 -12 q 111 12 109 5 q 111 16 108 13 q 109 20 109 18 l 109 24 l 109 26 l 108 29 l 104 41 q 97 51 101 47 q 93 55 94 54 q 90 58 93 56 l 90 61 q 87 62 88 61 l 86 63 l 84 63 l 84 65 l 83 65 q 81 66 81 65 q 80 67 81 67 l 77 70 l 25 116 l 140 219 l 180 162 "},"Y":{"x_min":30.5625,"x_max":838.953125,"ha":843,"o":"m 838 949 l 134 3 l 30 96 l 240 348 l 125 998 l 263 1002 l 368 527 q 457 656 416 595 q 540 777 498 716 q 627 899 581 837 q 730 1036 673 962 l 838 949 "},"E":{"x_min":37.5,"x_max":704.21875,"ha":731,"o":"m 704 983 l 697 844 l 273 865 q 256 744 265 804 q 241 624 248 685 q 313 621 277 622 q 391 618 350 619 q 483 614 433 617 q 597 608 533 612 l 588 469 l 223 485 q 208 362 216 424 q 193 234 200 300 q 374 222 272 229 q 601 216 476 216 l 601 76 l 177 95 l 175 71 l 37 85 l 156 1039 l 294 1020 l 291 1004 l 704 983 "},"y":{"x_min":27.78125,"x_max":737.5625,"ha":743,"o":"m 737 666 l 707 603 q 613 415 670 527 q 481 174 555 304 q 322 -96 408 44 q 143 -372 236 -237 l 27 -292 l 227 11 l 227 45 q 202 330 225 166 q 161 688 180 494 l 298 702 l 354 229 q 488 478 426 358 q 612 726 551 599 l 737 666 "},"\"":{"x_min":44.453125,"x_max":431.984375,"ha":476,"o":"m 181 544 l 44 564 l 75 890 l 212 869 l 181 544 m 401 544 l 263 564 l 294 890 l 431 869 l 401 544 "},"g":{"x_min":38.703125,"x_max":659.78125,"ha":688,"o":"m 523 675 l 659 651 l 590 248 q 568 100 579 171 q 541 -48 556 30 q 418 -290 512 -206 q 254 -357 344 -357 q 236 -356 245 -357 q 218 -354 227 -355 q 75 -252 125 -335 q 42 -161 50 -212 q 43 -53 34 -110 l 54 15 l 191 -6 l 180 -74 q 188 -171 170 -133 q 243 -216 205 -209 q 325 -187 284 -224 q 368 -130 345 -167 q 405 -22 391 -92 q 413 16 409 -2 q 419 52 416 34 q 405 48 411 50 q 326 36 368 36 q 282 39 304 36 q 240 51 261 43 q 113 161 156 80 q 86 355 69 244 q 187 596 106 507 q 268 661 223 636 q 362 694 312 686 q 498 678 434 705 q 507 673 502 675 q 516 669 512 672 l 523 675 m 452 268 l 452 269 q 468 372 459 318 q 487 493 476 427 l 470 527 q 439 552 463 543 q 383 556 415 561 q 278 489 320 547 q 223 337 236 431 q 231 236 215 276 q 287 181 248 197 q 361 179 320 169 q 427 230 402 190 l 452 268 "},"e":{"x_min":32.9375,"x_max":556.984375,"ha":593,"o":"m 243 0 q 98 55 158 0 q 42 155 58 95 q 37 285 26 215 q 190 567 61 427 q 293 655 245 629 q 377 688 340 681 q 440 685 413 694 q 480 667 466 677 q 543 579 529 637 q 531 460 556 522 q 483 390 515 420 q 408 341 451 359 q 194 329 316 304 q 181 292 186 309 q 175 262 177 276 q 173 198 168 226 q 195 155 179 170 q 229 139 208 142 q 277 143 250 135 q 338 172 305 151 q 409 229 372 192 l 459 277 l 556 177 l 506 129 q 290 4 398 24 q 243 0 265 0 m 279 458 q 354 469 323 456 q 400 506 384 481 q 409 535 409 522 q 406 551 409 548 q 397 550 404 551 q 380 544 391 550 q 344 522 366 537 q 291 473 322 506 q 285 466 288 469 q 279 458 281 462 "},"J":{"x_min":23.609375,"x_max":848.671875,"ha":863,"o":"m 848 900 l 848 761 l 652 761 q 629 591 640 665 q 606 452 618 517 q 581 326 594 388 q 554 196 569 264 q 450 20 529 90 q 373 -30 415 -10 q 287 -57 331 -50 q 221 -60 255 -63 q 156 -47 187 -57 q 100 -18 126 -36 q 61 28 75 0 l 23 88 l 141 160 l 179 102 q 212 80 188 86 q 265 79 236 74 q 309 92 286 82 q 354 121 333 103 q 393 165 376 139 q 418 228 409 192 q 445 352 433 293 q 468 471 456 410 q 489 602 479 532 q 512 759 500 671 q 461 758 487 759 q 400 758 434 758 q 322 758 366 758 q 218 758 277 758 l 218 897 l 848 900 "},"|":{"x_min":16.671875,"x_max":298.640625,"ha":314,"o":"m 154 -246 l 16 -225 l 161 888 l 298 867 l 154 -246 "},"q":{"x_min":20.59375,"x_max":586.328125,"ha":617,"o":"m 21 255 q 34 387 18 322 q 83 511 50 452 q 159 611 115 569 q 252 677 202 654 q 362 704 305 704 q 444 687 404 704 l 448 696 l 586 675 l 436 -361 l 298 -340 l 355 54 l 352 54 q 187 31 271 12 q 71 106 114 48 q 21 255 23 168 m 204 443 q 160 261 155 358 q 162 232 160 247 q 172 204 165 218 q 190 181 179 191 q 219 168 201 172 q 255 167 236 163 q 296 184 275 170 q 341 225 318 198 q 387 297 364 252 q 405 418 396 358 q 422 540 414 479 l 421 540 q 312 552 376 581 q 253 509 282 537 q 204 443 225 480 "},"b":{"x_min":30.6875,"x_max":596.40625,"ha":617,"o":"m 596 437 q 582 305 598 370 q 533 182 566 240 q 457 81 501 123 q 364 15 414 38 q 254 -11 311 -11 q 172 5 211 -11 l 168 -3 l 30 17 l 180 1054 l 318 1033 l 261 638 l 264 638 q 429 661 345 680 q 546 586 502 644 q 596 437 593 524 m 412 250 q 457 431 461 334 q 454 460 457 445 q 444 488 451 475 q 426 511 437 501 q 397 525 415 520 q 361 525 380 529 q 320 508 341 522 q 275 466 298 494 q 229 395 251 438 q 211 274 220 334 q 194 152 202 213 l 195 152 q 304 140 240 111 q 363 184 334 155 q 412 250 391 212 "},"D":{"x_min":34.71875,"x_max":706.53125,"ha":745,"o":"m 650 756 q 699 607 686 689 q 701 435 712 525 q 656 269 690 349 q 573 128 623 190 q 384 -12 493 28 q 252 -35 318 -35 q 214 -33 233 -35 q 176 -28 195 -31 l 172 -58 l 34 -38 l 173 970 l 309 950 l 309 945 q 491 906 413 945 q 650 756 593 857 m 465 214 q 529 326 504 264 q 563 453 554 389 q 563 579 572 518 q 527 689 554 640 q 288 806 458 814 q 242 457 263 628 q 195 108 220 286 q 285 105 244 99 q 359 127 326 111 q 419 167 393 143 q 465 214 445 190 "},"z":{"x_min":30.5625,"x_max":698.671875,"ha":732,"o":"m 81 1 l 30 117 q 143 235 86 176 q 255 353 200 295 q 364 465 311 412 q 469 561 418 517 l 163 552 l 159 692 q 307 696 241 693 q 431 699 373 699 q 545 699 490 700 q 658 695 600 699 l 698 572 q 566 461 620 509 q 463 366 511 413 q 364 265 415 319 q 244 141 313 211 l 586 141 l 586 3 q 420 3 484 3 q 303 3 355 3 q 202 2 251 3 q 81 1 152 1 "},"w":{"x_min":47,"x_max":933.359375,"ha":956,"o":"m 933 636 l 565 -18 l 436 19 q 436 89 436 45 q 436 182 436 133 q 436 279 436 231 q 436 363 436 327 q 338 205 395 297 q 197 -19 280 112 l 69 28 q 62 305 72 140 q 47 671 52 469 l 185 675 l 204 250 q 289 388 254 329 q 352 499 324 448 q 402 597 380 549 q 447 701 424 645 l 584 688 l 575 272 q 654 409 620 350 q 713 516 687 468 q 763 608 740 565 q 809 699 786 651 l 933 636 "},"$":{"x_min":21.484375,"x_max":652.25,"ha":692,"o":"m 508 967 q 576 935 546 955 q 639 854 621 903 q 648 747 658 805 l 637 678 l 500 700 l 511 769 q 508 805 515 793 q 493 822 501 816 q 490 823 491 822 l 447 498 q 488 470 468 484 q 526 436 508 455 q 594 280 589 369 q 576 165 597 217 q 515 76 557 117 q 383 3 460 24 l 372 -85 l 235 -64 l 243 -1 q 143 35 186 6 q 67 108 96 63 q 31 209 38 154 l 21 277 l 159 297 l 168 229 q 201 165 174 186 q 261 137 229 144 l 299 427 q 260 456 279 440 q 223 491 240 472 q 160 669 158 566 q 204 843 160 769 q 316 948 246 912 q 368 968 344 962 l 379 1049 l 516 1028 l 508 967 m 299 668 q 303 626 297 644 q 319 593 308 608 l 347 800 q 299 668 299 755 m 455 272 q 426 338 451 311 l 404 165 q 443 207 427 181 q 455 272 458 233 "},"\\":{"x_min":5.5625,"x_max":604.21875,"ha":610,"o":"m 5 898 l 127 965 l 604 72 l 481 6 l 5 898 "},"-":{"x_min":45.84375,"x_max":398.640625,"ha":444,"o":"m 45 311 l 66 449 l 398 453 l 377 315 l 45 311 "},"Q":{"x_min":36.28125,"x_max":785.453125,"ha":825,"o":"m 737 859 q 778 724 766 798 q 782 569 790 650 q 740 388 773 473 q 652 234 707 302 q 579 159 620 191 q 584 144 581 153 q 593 122 587 136 q 606 87 598 108 q 626 33 613 66 l 497 -15 l 456 91 q 326 71 394 71 q 293 72 309 71 q 259 77 276 74 q 144 128 194 85 q 73 228 98 168 q 38 480 26 333 q 77 675 45 580 q 158 847 108 771 q 290 983 218 936 q 472 1039 372 1039 q 491 1039 481 1039 q 512 1038 501 1039 q 514 1037 513 1038 q 516 1036 515 1036 q 651 973 593 1020 q 737 859 705 926 m 644 583 q 643 687 648 634 q 619 784 637 740 q 570 859 601 827 q 493 900 538 890 l 472 900 q 407 888 437 900 q 353 857 377 876 q 309 816 329 838 q 275 770 288 793 q 209 630 234 709 q 176 471 183 551 q 178 367 172 415 q 200 283 184 319 q 222 247 209 260 q 245 226 234 233 q 265 216 256 218 q 279 213 275 214 q 303 210 291 211 q 326 210 315 210 q 411 222 370 210 q 395 270 402 247 q 378 321 387 293 q 356 386 369 348 q 325 479 343 423 l 456 523 l 530 303 q 609 432 580 358 q 644 583 637 507 "},"M":{"x_min":31.953125,"x_max":933.40625,"ha":970,"o":"m 166 57 l 31 84 q 83 329 55 205 q 138 571 111 452 q 190 797 165 689 q 234 994 215 905 l 372 982 q 372 965 368 986 q 385 908 376 944 q 407 826 394 872 q 434 737 420 780 q 460 655 448 693 q 480 598 472 618 q 560 709 516 650 q 648 827 604 768 q 735 939 693 886 q 811 1035 777 993 l 933 980 l 773 79 l 637 108 q 668 259 652 180 q 698 418 683 337 q 727 580 713 500 q 754 734 741 659 q 682 640 718 687 q 616 550 647 593 q 561 473 586 508 q 523 414 537 437 l 405 414 q 385 457 397 426 q 359 525 373 487 q 331 604 345 564 q 306 677 318 644 q 305 682 306 680 l 166 57 "},"C":{"x_min":41.21875,"x_max":679.21875,"ha":707,"o":"m 294 68 q 229 78 258 68 q 122 143 166 96 q 58 262 79 190 q 76 632 16 409 q 147 810 102 730 q 255 943 193 889 q 372 1014 311 990 q 495 1035 434 1039 q 608 993 562 1030 q 670 886 659 954 l 679 816 l 541 797 l 531 866 q 513 889 529 885 q 486 896 498 894 q 417 882 454 898 q 347 837 380 866 q 276 752 315 810 q 209 594 237 694 q 179 409 179 480 q 191 301 180 339 q 217 248 200 275 q 268 211 234 221 q 381 237 320 196 q 445 303 418 262 q 487 393 472 343 l 508 459 l 640 418 l 620 351 q 556 221 597 279 q 461 123 516 162 q 294 68 380 68 "},"[":{"x_min":31.953125,"x_max":686.171875,"ha":706,"o":"m 568 -232 l 31 -232 l 191 967 l 686 974 l 686 835 q 458 833 552 835 q 311 831 363 832 q 274 626 293 746 q 238 377 255 505 q 207 124 222 248 q 184 -93 193 0 l 568 -93 l 568 -232 "},"L":{"x_min":33.34375,"x_max":652.828125,"ha":663,"o":"m 652 69 l 650 -69 l 33 -52 l 168 917 l 306 904 l 183 78 l 652 69 "},"!":{"x_min":20.90625,"x_max":309.75,"ha":325,"o":"m 195 222 l 58 240 l 173 967 l 309 944 l 195 222 m 83 4 q 32 26 50 4 q 23 80 15 48 q 61 134 31 112 q 123 157 90 157 q 172 134 155 157 q 181 80 190 112 q 144 26 173 48 q 83 4 115 4 "}," ":{"x_min":0,"x_max":0,"ha":308},"X":{"x_min":22.21875,"x_max":833.40625,"ha":867,"o":"m 527 462 q 620 245 570 355 q 744 6 669 135 l 623 -63 l 427 337 q 357 249 395 296 q 280 153 319 202 q 203 55 241 103 q 133 -33 165 7 l 22 49 l 369 485 q 301 667 337 570 q 215 892 265 763 l 344 943 l 470 612 q 595 772 536 694 q 718 942 655 851 l 833 862 l 527 462 "},"P":{"x_min":36.109375,"x_max":692.421875,"ha":711,"o":"m 629 845 q 684 753 669 806 q 684 640 700 699 q 630 526 669 581 q 534 423 591 470 q 399 335 475 373 q 236 270 323 297 q 222 204 229 238 q 209 131 216 170 q 192 43 201 91 q 172 -64 183 -4 l 36 -40 l 176 731 l 130 716 l 88 849 l 154 870 q 437 916 316 920 q 629 845 559 909 m 548 673 q 548 724 558 708 q 534 744 538 740 q 459 775 511 765 q 320 769 406 784 q 297 597 311 682 q 268 427 284 513 q 364 473 319 448 q 445 530 409 498 q 513 601 486 563 q 548 673 540 638 "},"%":{"x_min":31.984375,"x_max":843.1875,"ha":867,"o":"m 669 93 q 633 97 650 93 q 548 176 575 112 q 536 283 527 223 q 586 407 544 357 q 720 471 638 471 l 723 471 q 811 425 777 468 q 843 314 844 382 q 801 173 840 237 q 743 114 776 134 q 669 93 709 93 m 719 360 q 682 347 695 360 q 660 318 668 334 q 649 288 652 303 q 645 271 645 274 q 649 224 643 242 q 659 206 655 207 q 664 205 662 206 q 669 204 666 204 q 703 227 688 204 q 725 274 718 249 q 731 306 729 290 q 730 338 733 322 q 720 359 726 359 q 719 360 720 360 m 163 581 q 148 581 156 581 q 133 583 140 581 q 54 641 83 591 q 33 761 26 690 q 48 831 36 797 q 81 890 61 865 q 225 958 137 958 q 279 943 254 958 q 320 900 305 927 q 344 801 344 859 q 334 727 344 763 q 304 661 323 690 q 163 581 252 581 m 154 693 l 163 693 q 203 711 188 693 q 225 748 218 729 q 233 816 236 780 q 227 837 230 830 q 223 847 225 844 q 151 790 172 847 q 144 723 140 757 q 148 702 145 709 q 154 693 151 695 m 388 26 l 252 57 l 477 970 l 613 938 l 388 26 "},"#":{"x_min":34.71875,"x_max":722.28125,"ha":751,"o":"m 562 276 l 526 19 l 388 37 l 423 276 l 250 275 l 219 19 l 81 37 l 111 274 l 41 274 l 62 412 l 127 412 l 150 588 l 34 586 l 55 725 l 166 726 l 197 967 l 333 944 l 306 729 l 490 732 l 523 967 l 659 944 l 629 735 l 722 736 l 701 598 l 609 596 l 583 414 l 700 415 l 679 277 l 562 276 m 266 413 l 443 414 l 469 594 l 288 591 l 266 413 "},"_":{"x_min":48.609375,"x_max":834.78125,"ha":883,"o":"m 48 -317 l 69 -179 l 834 -175 l 813 -313 l 48 -317 "},"+":{"x_min":12.59375,"x_max":570.6875,"ha":582,"o":"m 12 372 l 33 510 l 215 507 l 214 708 l 351 687 l 353 506 l 570 503 l 549 366 l 354 368 l 355 163 l 218 183 l 216 370 l 12 372 "},")":{"x_min":19.453125,"x_max":649,"ha":678,"o":"m 245 975 l 313 962 q 533 841 447 937 q 643 598 619 745 q 611 312 663 476 q 550 163 587 237 q 466 23 512 88 q 294 -158 386 -90 q 109 -241 202 -226 l 41 -253 l 19 -115 l 87 -104 q 220 -39 151 -93 q 352 102 290 15 q 425 224 393 160 q 479 354 458 288 q 506 475 500 419 q 505 574 512 531 l 505 576 q 491 638 501 601 q 456 713 480 676 q 391 782 431 751 q 288 824 351 813 l 220 837 l 245 975 "},"'":{"x_min":36.109375,"x_max":204.1875,"ha":240,"o":"m 173 544 l 36 564 l 66 890 l 204 869 l 173 544 "},"T":{"x_min":33.34375,"x_max":657,"ha":667,"o":"m 657 906 l 657 767 l 406 767 q 373 580 390 672 q 340 391 356 489 q 306 182 323 293 q 269 -61 288 72 l 131 -40 l 265 766 q 222 765 244 766 q 174 764 201 764 q 113 764 147 764 q 33 764 79 764 l 33 903 l 657 906 "},"a":{"x_min":30.953125,"x_max":538.328125,"ha":581,"o":"m 537 530 q 523 365 541 457 q 484 186 505 273 q 467 114 475 148 q 455 53 459 80 l 443 -15 l 309 8 q 215 -3 259 -3 l 197 -3 q 113 18 144 -1 q 66 57 81 37 q 31 179 25 108 q 72 296 36 239 q 130 365 95 335 q 205 415 165 396 q 394 439 294 458 q 398 522 400 485 q 392 546 397 541 q 383 553 387 551 q 316 551 361 564 q 227 503 272 539 l 175 458 l 86 565 l 140 610 q 286 686 208 665 q 440 680 373 710 q 509 622 484 661 q 537 530 534 583 m 175 145 q 187 138 177 141 q 215 134 197 134 q 263 139 234 134 q 331 159 291 144 l 336 161 q 342 188 338 175 q 350 218 345 202 q 359 259 354 238 q 369 301 363 280 q 309 302 337 306 q 259 285 281 297 q 218 256 236 273 q 190 222 201 240 q 170 173 172 194 q 175 145 168 152 "},"=":{"x_min":48.609375,"x_max":736.171875,"ha":783,"o":"m 55 311 l 76 449 l 713 453 l 693 315 l 55 311 m 48 530 l 69 667 l 736 679 l 715 541 l 48 530 "},"N":{"x_min":27.78125,"x_max":833.40625,"ha":860,"o":"m 833 902 l 591 -9 l 470 -25 q 444 25 459 -13 q 413 120 429 65 q 382 243 398 176 q 352 373 366 309 q 326 492 338 437 q 306 581 313 547 q 274 450 290 519 q 240 304 258 382 q 204 137 223 226 q 163 -58 184 47 l 27 -30 l 244 876 l 376 879 q 398 800 386 848 q 424 696 411 753 q 451 575 437 639 q 477 451 465 512 q 502 336 490 390 q 525 241 515 282 q 557 367 538 293 q 599 531 576 441 q 647 723 622 620 q 698 936 672 826 l 833 902 "},"2":{"x_min":28.6875,"x_max":805.625,"ha":838,"o":"m 173 -11 l 159 -11 q 77 18 111 -6 q 30 95 38 45 q 88 247 18 172 q 166 312 120 283 q 273 366 212 341 q 354 390 312 383 q 438 394 395 397 q 454 392 447 393 q 470 390 462 391 q 493 427 481 409 q 515 465 504 445 q 593 679 576 582 q 596 754 600 722 q 577 805 593 786 q 540 829 563 822 q 489 836 516 836 q 434 832 462 836 q 386 822 406 827 l 318 807 l 286 941 l 354 957 q 550 969 468 984 q 687 890 638 952 q 733 779 722 844 q 736 721 736 751 q 729 657 736 690 q 637 401 709 537 q 605 344 623 375 q 722 250 675 307 q 787 127 769 194 l 805 61 l 670 25 l 652 91 q 609 168 641 132 q 529 227 576 204 q 527 228 527 227 q 526 229 527 229 q 427 118 480 166 q 364 64 395 87 q 301 25 333 40 q 173 -11 233 -11 m 170 127 q 243 150 201 126 q 331 219 286 175 q 362 250 348 233 q 345 245 354 247 q 326 238 336 243 q 213 175 248 206 q 170 127 179 144 "},"j":{"x_min":-254.1875,"x_max":416.625,"ha":446,"o":"m 184 326 q 195 404 190 365 q 207 490 201 444 q 220 588 213 536 q 233 704 226 640 l 372 687 l 325 323 l 326 323 l 301 184 q 277 61 293 125 q 241 -58 261 -1 q 201 -161 222 -115 q 161 -231 180 -206 q 33 -331 106 -304 q -102 -336 -33 -356 q -203 -272 -162 -318 q -248 -168 -244 -226 l -254 -100 l -116 -87 l -111 -156 q -96 -183 -109 -169 q -62 -202 -83 -197 q 51 -148 -4 -219 q 111 -14 84 -104 q 161 188 138 75 l 184 326 m 354 918 q 404 895 387 918 q 413 841 422 873 q 376 787 405 809 q 313 765 347 765 q 264 787 281 765 q 255 841 247 809 q 293 895 263 873 q 354 918 322 918 "},"Z":{"x_min":26.390625,"x_max":880.625,"ha":908,"o":"m 79 -67 l 26 49 q 164 204 104 137 q 275 325 225 270 q 368 428 325 380 q 458 527 412 476 q 555 635 504 578 q 672 766 607 692 l 236 767 l 236 906 q 413 905 338 906 q 554 903 488 904 q 682 903 619 903 q 826 907 745 904 l 880 791 q 755 648 811 711 q 652 532 700 586 q 559 429 604 479 q 465 327 513 380 q 360 213 416 275 q 234 75 304 152 l 690 76 l 690 -63 q 547 -63 608 -63 q 440 -63 487 -63 q 353 -63 393 -63 q 273 -64 313 -64 q 186 -65 233 -64 q 79 -67 140 -65 "},"u":{"x_min":45.71875,"x_max":626.4375,"ha":658,"o":"m 493 704 l 626 666 l 494 -16 l 358 12 l 372 74 q 356 58 365 66 q 341 42 348 49 q 184 -14 268 -23 l 183 -14 q 84 42 120 -7 q 51 126 61 76 q 48 249 41 176 l 119 697 l 256 678 q 214 425 237 540 q 186 226 191 310 q 188 144 181 165 q 197 123 195 124 l 200 123 q 256 153 225 120 q 319 248 287 185 q 391 410 358 319 q 452 587 423 501 q 473 647 463 619 q 493 704 483 676 "},"1":{"x_min":15.28125,"x_max":475.03125,"ha":508,"o":"m 302 139 l 394 139 l 394 0 l 15 0 l 15 139 l 161 139 q 230 438 190 277 q 305 756 270 598 q 302 754 302 755 q 298 752 301 754 l 240 715 l 165 832 l 368 957 l 475 886 l 302 139 "},"k":{"x_min":30.5625,"x_max":712.5625,"ha":733,"o":"m 287 480 q 326 428 301 460 q 383 359 351 396 q 451 281 415 321 q 523 199 487 240 q 592 123 559 159 q 650 59 625 87 l 547 -35 l 225 333 q 213 259 219 296 q 200 180 206 221 q 184 90 193 138 q 166 -16 176 41 l 30 6 l 206 1054 l 343 1026 l 275 649 q 429 785 345 712 q 626 948 513 859 l 712 838 l 287 480 "},"€":{"x_min":26.390625,"x_max":718.109375,"ha":747,"o":"m 26 511 l 47 648 l 143 648 q 294 876 198 789 q 411 947 350 923 q 534 967 473 971 q 647 926 601 963 q 709 819 698 887 l 718 749 l 580 730 l 570 799 q 552 822 568 817 q 525 828 537 827 q 456 815 493 831 q 386 770 419 799 q 341 723 365 752 q 294 651 318 695 l 433 652 l 412 515 l 244 512 q 236 480 240 495 q 230 450 233 465 l 433 453 l 412 315 l 219 312 q 230 234 220 266 q 256 180 238 208 q 306 144 273 153 q 420 170 359 128 q 484 235 456 195 q 526 326 511 276 l 547 392 l 679 351 l 659 284 q 595 153 636 212 q 500 56 555 95 q 333 1 419 1 q 268 11 297 1 q 161 76 205 29 q 97 195 118 123 q 79 311 81 245 l 26 311 l 47 449 l 88 449 l 101 511 l 26 511 "},"t":{"x_min":9.71875,"x_max":569.484375,"ha":578,"o":"m 569 501 l 358 504 q 344 402 351 455 q 329 288 337 349 q 311 152 320 226 q 291 -11 302 77 l 154 5 l 218 510 q 182 510 201 510 q 139 511 163 511 q 84 512 115 512 q 9 512 52 512 l 9 651 l 237 647 q 248 724 243 687 q 260 801 254 762 q 273 885 266 841 q 288 983 280 930 l 426 959 l 376 643 q 407 641 391 643 q 445 639 423 640 q 495 638 466 638 q 565 640 525 638 l 569 501 "},"W":{"x_min":44.625,"x_max":1124.921875,"ha":1149,"o":"m 1124 979 l 712 49 l 580 76 q 573 203 577 128 q 566 361 570 279 q 559 524 562 444 q 553 665 555 603 q 499 553 529 615 q 432 417 469 492 q 348 249 394 341 q 244 47 301 158 l 114 83 q 105 267 112 163 q 86 489 97 370 q 64 737 76 608 q 44 1001 52 867 l 183 1010 l 239 341 q 352 569 305 473 q 435 745 400 666 q 497 893 471 824 q 547 1040 523 962 l 686 1035 q 693 755 690 869 q 699 567 697 641 q 702 452 701 492 q 704 392 704 412 q 705 369 705 373 q 705 365 705 365 q 808 592 765 495 q 886 764 852 688 q 945 903 919 840 q 995 1031 970 967 l 1124 979 "},"v":{"x_min":34.71875,"x_max":643.109375,"ha":656,"o":"m 275 -14 l 145 9 l 34 674 l 170 700 q 194 567 183 629 q 215 447 205 505 q 234 336 225 390 q 251 227 243 281 l 522 714 l 643 645 q 544 468 590 551 q 454 306 498 386 q 367 149 411 227 q 275 -14 323 70 "},"s":{"x_min":20.921875,"x_max":487.421875,"ha":524,"o":"m 208 -1 q 101 36 144 -1 q 32 171 45 83 l 20 239 l 158 261 l 169 193 q 177 162 172 175 q 190 143 183 149 q 198 138 193 140 q 214 137 202 136 q 247 149 229 139 q 280 176 265 160 q 305 214 295 193 q 314 258 315 235 q 299 286 312 275 q 244 317 286 297 q 203 338 223 328 q 164 365 183 349 q 116 482 109 412 q 162 599 120 547 q 251 665 197 643 q 352 687 302 689 q 437 657 401 685 q 479 599 466 633 q 484 524 491 564 l 473 455 l 336 478 l 347 546 l 347 547 q 326 546 340 549 q 297 535 312 543 q 271 512 286 528 q 254 471 257 497 q 275 456 259 464 q 304 443 291 449 q 348 420 325 432 q 391 390 370 408 q 453 267 448 340 q 439 171 455 218 q 386 86 422 125 q 313 27 354 50 q 229 -1 272 4 l 208 -1 "},"B":{"x_min":31.953125,"x_max":690.515625,"ha":729,"o":"m 672 647 q 529 498 632 559 q 625 404 591 464 q 653 262 661 339 q 594 118 645 186 q 409 -9 526 28 q 266 -31 344 -31 q 175 -23 220 -31 l 168 -58 l 31 -31 l 205 968 l 341 943 l 340 940 q 532 919 452 945 q 654 836 612 893 q 689 745 684 795 q 672 647 694 695 m 483 202 q 514 272 509 236 q 504 336 519 308 q 411 398 479 379 q 248 409 344 418 q 225 261 237 334 q 198 112 212 187 q 297 108 252 104 q 377 125 341 112 q 440 159 413 138 q 483 202 466 179 m 544 702 q 550 737 555 726 q 543 752 545 748 q 470 792 526 776 q 313 800 415 808 q 293 676 302 737 q 272 552 283 615 q 447 611 377 572 q 544 702 522 651 "},"?":{"x_min":23.609375,"x_max":538.234375,"ha":560,"o":"m 126 262 q 144 348 130 308 q 177 425 158 388 q 220 493 197 461 q 268 558 243 526 q 305 608 277 569 q 359 695 333 647 q 384 750 376 727 q 396 788 393 773 q 399 811 400 804 q 398 822 398 819 q 396 825 397 823 q 388 829 395 826 q 357 826 381 832 q 290 793 333 820 q 221 740 251 769 q 176 691 191 711 l 134 636 l 23 718 l 63 773 q 129 845 88 808 q 215 909 170 882 q 318 959 269 944 q 438 958 387 979 q 531 858 512 930 q 481 630 556 772 q 422 533 452 576 q 377 472 391 490 q 304 366 337 419 q 265 248 272 312 l 126 262 m 173 163 q 112 140 141 163 q 75 86 83 118 q 84 32 66 54 q 133 10 101 10 q 195 32 166 10 q 233 86 225 54 q 224 140 241 118 q 173 163 206 163 "},"H":{"x_min":33.34375,"x_max":766.734375,"ha":800,"o":"m 766 903 l 598 -58 l 462 -32 l 534 372 q 390 369 458 372 q 245 366 322 366 q 231 289 238 329 q 215 199 225 249 q 195 85 206 149 q 169 -58 184 22 l 33 -33 l 201 924 l 337 898 l 270 513 q 269 504 269 510 q 411 507 343 505 q 556 510 480 510 q 569 584 562 546 q 585 673 576 623 q 604 784 594 722 q 630 928 615 846 l 766 903 "},"c":{"x_min":31.78125,"x_max":547.265625,"ha":574,"o":"m 237 0 q 100 53 156 0 q 41 151 58 91 q 34 275 26 209 q 168 565 54 415 q 283 669 222 636 q 406 693 347 704 q 479 661 450 686 q 523 597 511 636 l 547 532 l 415 486 l 393 553 q 386 555 393 555 q 344 544 373 558 q 277 482 315 530 q 198 349 219 405 q 172 257 177 293 q 195 154 163 184 q 252 140 215 134 q 302 156 272 143 q 372 205 331 169 l 425 250 l 515 146 l 463 100 q 272 3 369 18 q 254 0 263 1 q 237 0 245 0 "},"&":{"x_min":36.625,"x_max":690.328125,"ha":715,"o":"m 490 -46 l 445 6 q 424 35 436 17 q 400 77 412 54 q 393 74 397 74 q 387 70 390 73 q 247 9 308 27 q 108 12 163 -12 q 84 26 98 16 q 57 55 69 37 q 39 101 45 73 q 40 167 33 129 q 104 326 52 238 q 223 511 156 413 q 202 609 209 562 q 211 838 177 749 q 268 922 230 891 q 365 967 306 956 q 465 970 427 979 q 521 948 501 963 q 551 917 541 933 q 568 867 566 894 q 564 812 570 840 q 545 757 558 784 q 519 705 533 730 q 454 599 491 655 q 375 484 416 544 q 387 448 381 466 q 400 410 393 430 q 425 344 412 376 q 451 283 438 312 q 499 325 477 304 q 538 367 520 347 l 581 422 l 690 333 l 645 279 q 586 216 619 247 q 515 155 552 185 q 536 117 527 133 q 552 95 545 102 l 597 41 l 490 -46 m 277 343 q 211 232 238 284 q 177 144 184 180 q 176 137 176 141 q 193 140 183 138 q 218 147 202 141 q 326 195 265 162 q 331 199 329 198 q 336 202 333 200 q 306 270 320 234 q 277 343 291 305 m 426 834 q 388 830 413 834 q 359 818 369 827 q 341 790 348 809 q 331 738 333 768 q 333 669 330 708 q 361 711 348 691 q 384 750 373 730 q 413 802 404 782 q 426 834 423 823 "},"I":{"x_min":34.71875,"x_max":754.234375,"ha":786,"o":"m 754 1043 l 754 904 l 519 904 q 488 733 504 816 q 459 567 473 651 q 429 398 444 484 q 401 216 415 311 q 441 216 422 216 q 485 217 461 217 q 541 217 509 217 q 622 217 573 217 l 622 79 l 34 76 l 34 215 l 259 215 q 289 398 275 310 q 318 569 304 486 q 347 734 333 652 q 377 903 362 816 q 336 902 356 903 q 288 902 315 902 q 226 902 261 902 q 145 902 191 902 l 145 1040 l 754 1043 "},"G":{"x_min":42.03125,"x_max":740.34375,"ha":763,"o":"m 740 490 l 740 351 l 670 351 l 618 351 q 552 222 594 280 q 456 128 511 165 q 374 87 416 100 q 290 74 331 74 q 222 83 252 74 q 118 150 159 102 q 56 270 76 198 q 80 636 18 416 q 156 816 108 736 q 266 949 204 895 q 386 1020 323 996 q 509 1038 450 1043 q 620 996 572 1034 q 679 888 670 955 l 687 820 l 550 803 l 541 871 q 525 893 538 887 q 498 900 512 899 q 429 888 466 903 q 356 843 391 873 q 284 757 325 816 q 213 598 243 699 q 181 414 181 484 q 190 306 180 343 q 213 253 197 280 q 262 216 230 225 q 318 214 287 207 q 377 242 348 221 q 429 290 405 262 q 470 355 452 318 l 448 355 l 379 358 l 383 497 l 452 494 q 502 492 483 492 q 534 491 520 492 q 559 490 550 491 q 581 490 569 490 q 614 490 594 490 q 670 490 634 490 l 740 490 "},"(":{"x_min":30.21875,"x_max":659.78125,"ha":679,"o":"m 433 -253 l 365 -240 q 145 -119 231 -215 q 36 123 59 -23 q 68 409 15 245 q 129 558 91 484 q 212 698 166 633 q 384 880 293 812 q 569 963 476 948 l 637 975 l 659 837 l 591 826 q 458 761 527 815 q 326 619 388 706 q 253 497 286 561 q 200 367 220 433 q 172 246 179 302 q 173 147 166 190 l 173 145 q 188 83 177 120 q 222 8 198 45 q 287 -60 247 -29 q 390 -102 327 -91 l 458 -115 l 433 -253 "},"`":{"x_min":11.109375,"x_max":191.6875,"ha":215,"o":"m 11 908 l 123 961 l 191 750 l 125 717 l 11 908 "},"U":{"x_min":50.65625,"x_max":658.78125,"ha":687,"o":"m 233 61 q 110 122 158 61 q 57 523 30 226 q 75 668 64 598 q 98 797 86 739 q 120 898 110 855 q 135 961 130 941 l 153 1028 l 287 993 l 269 926 q 255 866 265 907 q 234 770 246 826 q 212 648 222 715 q 194 511 201 582 q 187 370 186 426 q 195 279 189 313 q 209 229 201 245 q 221 206 216 212 q 228 200 225 201 q 233 200 230 200 q 337 268 286 200 q 428 462 387 336 q 464 593 448 526 q 491 727 480 661 q 507 853 501 793 q 517 962 514 913 l 521 1032 l 658 1025 l 656 955 q 646 838 653 902 q 627 703 639 773 q 599 560 615 633 q 560 419 582 487 q 505 282 535 343 q 442 177 476 222 q 353 94 400 123 q 233 61 296 61 "},"F":{"x_min":37.5,"x_max":704.21875,"ha":708,"o":"m 704 848 l 697 709 l 273 730 q 256 609 265 669 q 241 488 248 550 q 313 486 277 487 q 391 483 350 484 q 483 479 433 481 q 597 473 533 477 l 588 334 l 223 349 q 213 265 218 308 q 202 172 208 222 q 189 65 195 123 q 175 -64 183 6 l 37 -50 l 156 907 l 294 888 l 291 869 l 704 848 "},"r":{"x_min":41.671875,"x_max":561.15625,"ha":568,"o":"m 561 416 l 423 401 l 415 470 q 404 524 411 505 q 391 551 397 544 q 332 508 363 549 q 273 388 301 466 q 243 295 256 344 q 219 194 230 245 q 198 93 208 143 q 180 -2 188 43 l 179 -8 l 41 10 q 56 204 50 119 q 70 366 62 288 q 87 523 77 444 q 111 701 97 602 l 248 682 l 238 614 l 238 612 q 331 679 284 666 q 411 688 377 692 l 412 688 q 436 683 422 687 q 464 669 450 678 q 494 644 479 660 q 522 601 509 627 q 544 540 537 571 q 554 485 551 509 l 561 416 "},":":{"x_min":26.46875,"x_max":273.5625,"ha":299,"o":"m 211 618 q 261 595 244 618 q 270 541 279 573 q 233 487 262 509 q 170 465 204 465 q 121 487 138 465 q 112 541 104 509 q 150 595 120 573 q 211 618 179 618 m 127 163 q 178 140 161 163 q 187 86 195 118 q 150 32 179 54 q 87 10 120 10 q 38 32 55 10 q 29 86 20 54 q 66 140 37 118 q 127 163 95 163 "},"x":{"x_min":26.390625,"x_max":715.328125,"ha":743,"o":"m 480 351 q 548 211 513 283 q 625 38 583 138 l 495 -15 l 469 50 q 429 139 452 90 q 379 243 406 188 q 259 114 326 186 q 130 -29 191 41 l 26 62 l 312 375 q 253 493 284 430 q 179 652 222 556 l 304 711 l 413 483 q 506 586 461 534 q 607 708 551 638 l 715 621 l 480 351 "},"*":{"x_min":31.71875,"x_max":519.125,"ha":550,"o":"m 519 552 l 462 457 l 414 486 q 400 495 408 490 q 385 504 392 499 q 346 526 366 515 q 308 549 327 538 l 308 451 l 197 451 l 197 526 q 172 507 185 516 q 144 487 159 498 l 98 457 l 35 547 l 81 578 q 115 602 99 591 q 145 624 130 613 q 84 642 119 634 l 31 656 l 59 765 l 113 749 q 157 737 137 744 q 197 724 177 731 l 197 861 l 308 861 l 308 753 q 338 776 323 765 q 373 803 353 788 l 417 837 l 484 749 l 441 716 q 395 681 414 697 q 358 649 376 665 q 401 624 380 637 q 442 598 421 612 l 471 581 l 519 552 "},"V":{"x_min":34.71875,"x_max":818.125,"ha":828,"o":"m 316 -63 l 186 -43 l 34 929 l 172 953 q 226 616 198 800 q 290 195 254 433 l 695 921 l 818 855 q 690 630 751 735 q 568 419 629 526 q 446 195 508 312 q 316 -63 384 78 "},"h":{"x_min":25,"x_max":605.390625,"ha":638,"o":"m 158 -21 l 25 16 l 243 1043 l 379 1015 q 356 907 366 956 q 336 812 345 858 q 316 722 326 766 q 297 627 306 677 l 309 640 q 466 698 383 706 l 468 698 q 566 640 531 690 q 602 433 615 576 l 531 -14 l 394 5 q 436 258 413 144 q 465 456 459 372 q 462 538 469 517 q 454 559 455 558 l 451 559 q 331 436 400 563 q 282 330 305 387 q 238 213 259 273 q 197 93 218 154 q 158 -21 177 33 "},"0":{"x_min":49.421875,"x_max":750.609375,"ha":790,"o":"m 315 -4 q 254 1 281 -4 q 91 129 145 20 q 52 408 37 237 q 90 600 61 505 q 166 770 120 695 q 284 906 218 858 q 452 965 363 965 q 498 960 475 965 q 625 905 572 949 q 670 859 650 885 q 705 801 690 833 q 743 676 733 744 q 748 529 754 608 q 709 340 741 433 q 627 176 677 248 q 495 48 570 94 q 315 -4 411 -4 m 452 826 q 397 812 423 826 q 350 780 370 799 q 312 739 329 760 q 284 699 295 717 q 222 557 247 637 q 190 395 197 477 q 188 307 186 351 q 202 227 191 262 q 231 167 212 191 q 277 137 250 143 q 296 135 287 136 q 315 135 305 135 q 380 146 350 135 q 435 174 411 157 q 479 213 459 191 q 513 255 498 234 q 578 387 554 314 q 609 540 602 461 q 609 632 613 584 q 589 720 604 680 q 547 789 575 761 q 477 825 519 818 l 476 825 q 464 826 469 826 q 452 826 459 826 "},".":{"x_min":37.578125,"x_max":201.328125,"ha":238,"o":"m 138 163 q 189 140 172 163 q 198 86 206 118 q 161 32 190 54 q 98 10 131 10 q 49 32 66 10 q 40 86 31 54 q 77 140 48 118 q 138 163 106 163 "},"@":{"x_min":39.5625,"x_max":925.765625,"ha":963,"o":"m 412 -1 q 280 15 341 -1 q 170 65 219 31 q 99 134 129 94 q 54 223 69 175 q 56 455 23 325 q 159 711 94 601 q 305 879 223 815 q 386 930 344 909 q 475 962 429 951 q 645 965 562 983 q 770 912 713 950 q 863 818 826 875 q 918 687 902 759 q 918 534 933 613 q 886 436 909 484 q 830 347 863 387 q 669 254 754 254 l 665 254 q 629 259 651 254 q 587 284 608 265 q 506 225 551 244 q 418 206 462 206 q 368 212 388 206 q 262 288 298 231 q 244 429 225 348 q 302 588 266 523 q 377 691 337 652 q 461 745 418 730 q 543 759 504 761 q 643 717 601 755 q 693 620 686 679 l 702 552 l 563 534 l 555 604 q 547 616 554 613 q 534 620 540 619 q 509 615 527 620 q 466 584 491 609 q 422 520 447 563 q 379 397 398 476 q 402 347 369 355 q 433 346 416 343 q 465 359 450 350 q 497 393 480 370 q 527 458 515 415 l 663 445 q 675 394 668 406 q 695 406 682 397 q 726 438 709 416 q 761 496 747 465 q 782 558 776 527 q 781 663 791 616 q 746 744 770 709 q 688 800 722 779 q 616 829 654 820 q 497 825 559 841 q 378 760 436 809 q 271 627 320 711 q 190 420 222 543 q 250 180 147 252 q 337 143 286 154 q 450 138 388 133 q 574 166 513 144 q 686 225 634 188 l 743 265 l 822 151 l 766 111 q 622 35 700 63 q 462 0 544 6 q 437 -1 450 -1 q 412 -1 425 -1 "},"f":{"x_min":26.390625,"x_max":676.4375,"ha":683,"o":"m 587 494 l 593 355 l 237 369 q 226 291 231 330 q 214 205 220 251 q 202 107 208 160 q 188 -8 195 55 l 50 8 l 97 372 l 95 372 l 26 376 l 33 514 q 75 512 59 512 q 99 511 90 511 q 112 511 108 511 q 120 511 116 511 q 145 634 129 571 q 180 754 161 697 q 220 857 200 811 q 261 928 241 903 q 388 1028 315 1000 q 525 1032 455 1053 q 625 968 584 1014 q 670 864 666 922 l 676 796 l 538 783 l 533 853 q 518 879 531 865 q 484 899 505 893 q 370 844 426 915 q 310 710 337 800 q 261 507 283 621 l 587 494 "},";":{"x_min":36.1875,"x_max":248.34375,"ha":265,"o":"m 202 162 l 205 160 q 208 156 206 158 q 212 150 209 153 l 216 146 q 219 142 216 142 q 222 136 219 142 q 225 132 222 135 q 225 128 225 129 q 226 125 226 128 q 230 119 230 121 q 231 117 231 118 q 233 115 231 117 q 233 111 233 115 q 236 104 236 108 q 240 89 238 97 q 245 71 243 81 q 247 32 250 54 q 247 28 247 32 l 247 22 q 245 12 245 19 q 244 8 244 10 q 243 3 244 6 q 242 -1 243 0 q 241 -6 241 -3 q 229 -41 236 -25 q 220 -58 225 -50 q 212 -73 216 -66 q 202 -85 206 -80 q 193 -98 197 -91 q 187 -103 190 -103 q 183 -109 184 -109 q 178 -116 180 -113 q 173 -121 176 -119 q 165 -130 166 -125 q 159 -134 162 -132 q 154 -138 156 -135 q 138 -152 144 -148 q 126 -163 134 -157 q 118 -170 122 -166 q 115 -171 116 -171 l 87 -194 l 45 -148 l 68 -121 q 69 -119 68 -120 l 76 -112 q 83 -100 77 -109 q 94 -85 90 -94 q 100 -77 97 -82 q 105 -67 102 -74 q 109 -63 108 -66 q 112 -57 109 -60 q 113 -52 112 -55 q 116 -48 113 -52 l 125 -27 q 128 -17 127 -23 q 131 -6 129 -12 q 133 12 131 6 q 133 17 130 14 q 131 21 131 18 l 131 25 l 131 26 l 130 29 l 126 42 q 119 51 123 47 q 115 56 116 54 q 112 58 115 57 l 112 61 q 109 62 111 61 l 108 64 l 106 64 l 106 65 l 105 65 q 104 67 104 65 q 102 68 104 68 l 100 71 l 47 117 l 162 219 l 202 162 m 137 618 q 188 595 170 618 q 197 541 205 573 q 159 487 188 509 q 97 465 130 465 q 47 487 65 465 q 38 541 30 509 q 76 595 47 573 q 137 618 105 618 "},"i":{"x_min":16.671875,"x_max":299.953125,"ha":321,"o":"m 125 700 l 262 682 l 152 -18 l 16 4 l 125 700 m 237 918 q 288 895 270 918 q 297 841 305 873 q 259 787 288 809 q 197 765 230 765 q 147 787 165 765 q 138 841 130 809 q 176 895 147 873 q 237 918 205 918 "},"A":{"x_min":6.9375,"x_max":687.5625,"ha":733,"o":"m 687 59 l 548 55 l 536 390 q 480 389 502 390 q 437 387 458 388 q 391 387 416 387 q 325 387 365 387 q 287 318 306 353 q 245 242 268 284 q 193 151 222 201 q 126 40 163 102 l 6 110 l 519 1028 l 648 993 l 687 59 m 529 528 q 527 538 527 532 q 522 642 525 591 q 518 744 520 693 q 456 631 484 684 q 400 526 427 577 l 529 528 "},"6":{"x_min":18.75,"x_max":644.5,"ha":675,"o":"m 236 -6 q 111 23 163 -6 q 36 107 59 53 q 25 250 8 170 q 93 426 40 330 q 250 657 150 530 q 495 933 351 784 l 544 983 l 644 885 q 535 773 583 824 q 449 678 487 721 q 379 596 411 634 q 322 523 348 557 l 325 523 q 420 516 373 528 q 506 477 468 505 q 595 360 572 432 q 605 282 607 323 q 588 202 604 242 q 533 119 570 157 q 443 50 495 80 q 343 9 395 24 q 241 -6 290 -4 l 236 -6 m 184 299 q 161 224 166 255 q 162 163 154 183 q 196 137 172 142 q 238 133 220 133 q 307 143 272 133 q 373 170 343 153 q 427 208 404 187 q 459 253 450 230 q 466 295 468 277 q 459 327 465 313 q 443 350 452 341 q 427 363 434 359 q 385 382 409 376 q 334 385 361 388 q 277 368 306 381 q 218 328 247 355 l 184 299 "},"n":{"x_min":33.34375,"x_max":614.046875,"ha":660,"o":"m 166 -21 l 33 16 l 165 699 l 301 670 l 287 608 q 302 624 294 616 q 318 640 311 633 q 475 697 391 706 l 476 697 q 575 640 538 690 q 608 556 598 606 q 611 433 618 506 l 540 -14 l 402 4 q 445 257 422 142 q 473 456 468 372 q 470 538 477 517 q 462 559 463 558 l 459 559 q 403 529 434 562 q 340 434 372 497 q 290 329 313 386 q 247 212 268 272 q 206 92 226 152 q 166 -21 186 33 "},"O":{"x_min":35.640625,"x_max":770.125,"ha":805,"o":"m 282 74 l 252 74 q 145 111 193 78 q 76 192 104 140 q 36 407 31 276 q 71 616 38 509 q 158 812 104 723 q 309 978 225 920 q 488 1036 393 1036 l 495 1036 q 623 1001 564 1034 q 671 963 649 986 q 710 913 693 941 q 770 670 772 818 q 759 570 768 622 q 735 469 750 519 q 642 279 701 364 q 480 126 572 179 q 282 74 387 74 m 487 897 q 417 880 450 897 q 357 840 384 863 q 310 789 330 816 q 276 740 290 762 q 204 576 232 666 q 175 403 177 486 q 175 351 173 382 q 186 289 177 319 q 212 236 194 258 q 262 213 230 214 l 282 213 q 364 226 326 213 q 432 260 401 239 q 487 308 462 282 q 528 358 511 333 q 601 508 575 425 q 631 673 628 591 q 621 767 631 724 q 593 838 612 809 q 490 897 557 895 l 487 897 "},"3":{"x_min":18.0625,"x_max":765.53125,"ha":800,"o":"m 331 -1 q 317 -1 325 -1 q 302 0 309 -1 q 72 94 179 8 l 18 138 l 105 246 l 159 203 q 333 138 240 138 q 448 167 394 138 q 522 229 495 192 q 547 303 550 267 q 531 344 545 325 q 499 376 518 363 q 459 399 480 389 q 420 414 437 408 l 413 543 q 576 654 519 588 q 626 753 622 707 q 600 814 630 792 q 509 831 572 833 q 351 782 447 829 l 288 750 l 226 875 l 288 906 q 506 971 406 964 q 679 929 609 975 q 747 846 726 897 q 763 740 770 797 q 680 561 755 649 q 588 482 640 517 q 622 453 607 467 q 686 315 679 390 q 641 156 693 233 q 586 94 618 122 q 513 44 554 65 q 331 -1 427 -1 "},"]":{"x_min":19.453125,"x_max":673.671875,"ha":706,"o":"m 137 974 l 673 974 l 513 -225 l 19 -232 l 19 -93 q 247 -91 152 -93 q 394 -89 341 -90 q 431 115 412 -4 q 466 364 450 236 q 497 617 483 493 q 520 835 512 741 l 137 835 l 137 974 "},"m":{"x_min":40.0625,"x_max":872.125,"ha":921,"o":"m 809 -14 l 673 16 l 688 83 q 733 414 728 273 q 733 475 734 450 q 729 518 731 501 q 692 462 713 498 q 645 364 672 425 q 586 216 619 304 q 516 7 554 129 l 381 36 q 401 235 395 151 q 407 377 406 319 q 404 471 408 436 q 397 526 401 507 q 356 468 381 507 q 301 362 331 429 q 228 184 262 280 q 176 1 195 89 l 40 25 q 58 169 47 91 q 83 326 70 247 q 105 480 94 404 q 124 623 116 557 l 133 692 l 270 675 l 262 605 q 260 589 260 598 q 258 572 259 580 q 264 581 260 576 q 270 588 267 586 q 328 652 299 629 q 387 682 358 675 q 481 658 440 695 q 523 590 508 634 q 544 475 538 546 q 547 482 547 479 q 551 490 548 486 q 601 578 577 544 q 644 633 624 612 q 679 664 663 654 q 706 679 694 675 q 792 675 752 698 q 872 441 872 630 q 860 263 873 362 q 823 54 846 165 l 809 -14 "},"9":{"x_min":31.953125,"x_max":657.6875,"ha":676,"o":"m 440 983 q 564 953 512 983 q 640 869 616 923 q 651 726 668 806 q 583 551 636 646 q 180 44 470 342 l 131 -6 l 31 91 q 140 203 91 152 q 227 298 188 255 q 296 380 265 342 q 354 453 327 419 l 351 453 q 255 460 302 448 q 169 499 208 471 q 80 616 104 544 q 70 694 69 653 q 87 774 72 734 q 143 857 105 819 q 233 926 180 896 q 333 967 280 952 q 434 983 386 981 l 440 983 m 491 677 q 515 752 509 721 q 513 813 522 794 q 479 839 504 834 q 437 844 455 844 q 368 833 404 844 q 302 806 333 823 q 249 767 272 789 q 216 723 226 745 q 209 681 208 699 q 217 649 211 663 q 232 626 223 635 q 248 613 241 617 q 290 594 266 600 q 342 591 315 588 q 399 608 369 595 q 458 648 429 621 l 491 677 "},"l":{"x_min":16.671875,"x_max":298.640625,"ha":315,"o":"m 154 -17 l 16 3 l 161 1057 l 298 1036 l 154 -17 l 154 -17 "},"8":{"x_min":31.90625,"x_max":637.390625,"ha":677,"o":"m 550 472 q 621 312 618 409 q 598 199 623 253 q 528 102 574 145 q 487 69 512 85 q 431 37 463 52 q 360 12 399 23 q 272 1 320 2 q 258 0 265 0 q 244 0 251 0 q 144 20 181 0 q 87 62 106 41 q 32 204 36 118 q 50 316 30 259 q 107 418 69 372 q 186 488 142 459 q 178 495 182 491 q 172 502 175 500 q 117 655 117 562 q 134 760 117 708 q 183 857 151 812 q 262 930 219 904 q 316 954 288 947 q 373 964 344 962 q 566 894 492 964 q 637 734 630 831 q 623 633 639 683 q 574 542 606 583 q 550 515 563 527 q 524 492 538 504 q 537 482 531 487 q 550 472 544 477 m 296 775 q 266 717 276 748 q 256 655 256 686 q 264 612 256 628 q 285 587 272 596 q 312 576 297 579 q 343 574 328 574 q 355 574 350 574 q 367 575 360 575 l 368 575 q 425 592 400 577 q 467 628 450 606 q 492 676 483 650 q 499 727 500 702 q 492 758 497 741 q 474 789 487 775 q 437 814 461 804 q 376 825 414 825 l 374 825 q 326 806 346 823 q 296 775 307 788 m 265 140 q 363 158 322 141 q 431 201 405 176 q 470 255 458 226 q 483 309 483 284 q 362 399 480 399 q 342 398 348 399 q 263 373 294 395 q 215 331 232 352 q 181 271 193 303 q 171 210 169 240 q 179 171 172 186 q 197 150 186 157 q 220 141 208 143 q 244 139 233 139 q 252 139 247 139 q 261 140 256 139 l 265 140 "},"p":{"x_min":33.34375,"x_max":645.765625,"ha":664,"o":"m 33 -334 l 169 706 l 306 689 l 306 683 q 338 690 322 687 q 370 693 354 693 q 378 692 375 693 q 386 692 381 692 q 463 674 426 689 q 533 630 501 658 q 638 448 615 560 q 643 332 650 390 q 608 219 636 273 q 552 132 584 171 q 481 68 519 94 q 319 23 401 15 q 233 52 270 27 q 222 -29 227 12 q 209 -119 216 -70 q 192 -226 201 -168 q 170 -357 183 -284 l 33 -334 m 443 525 q 402 544 427 537 q 352 546 377 551 q 306 521 327 541 q 280 461 286 501 q 270 368 275 413 q 259 275 266 322 l 275 220 q 293 182 280 201 q 333 161 305 163 q 408 186 365 158 q 483 280 451 213 q 505 352 501 316 q 502 420 509 388 q 479 479 495 452 q 443 525 463 506 "},"4":{"x_min":22.21875,"x_max":694.5,"ha":715,"o":"m 694 571 l 687 432 l 512 438 q 495 342 504 390 q 478 241 487 294 q 459 127 469 188 q 436 -7 448 66 l 298 16 l 372 438 q 269 437 319 438 q 180 435 219 436 q 117 434 141 435 q 91 433 93 433 l 22 515 q 56 724 37 608 q 100 983 76 840 l 236 959 l 172 575 q 275 575 216 575 q 397 578 334 576 q 414 665 405 621 q 434 759 423 710 q 458 865 444 808 q 488 988 472 921 l 623 954 l 538 576 l 694 571 "},"R":{"x_min":34.71875,"x_max":770.890625,"ha":807,"o":"m 770 61 l 698 -57 l 234 290 q 221 224 227 258 q 207 152 215 191 q 190 65 200 113 q 172 -41 181 18 l 34 -16 l 175 749 l 143 740 l 101 872 l 168 893 q 190 899 180 898 l 190 902 l 195 901 q 462 943 347 947 q 657 877 588 940 q 706 795 693 843 q 705 695 719 748 q 552 487 680 584 q 351 373 468 419 l 770 61 m 275 492 q 468 597 390 535 q 536 663 509 628 q 570 728 563 698 q 571 762 577 752 q 561 776 565 772 q 520 796 547 788 q 458 804 494 804 q 319 790 395 806 q 300 640 312 713 q 275 492 288 566 "},"o":{"x_min":35.8125,"x_max":625.125,"ha":660,"o":"m 238 6 l 237 6 q 216 7 223 6 q 133 31 170 9 q 72 93 95 52 q 36 248 33 154 q 63 398 38 322 q 133 537 88 473 q 253 658 186 617 q 395 699 320 699 l 399 699 l 401 699 q 501 674 456 696 q 574 610 547 650 q 613 530 600 575 q 625 433 626 486 q 617 360 623 397 q 597 287 611 324 q 565 217 584 251 q 523 153 547 182 q 395 44 468 82 q 238 6 322 6 m 395 560 q 346 549 369 560 q 304 523 323 539 q 271 491 286 508 q 247 460 256 473 q 196 355 215 412 q 175 244 177 297 q 224 145 172 149 l 238 145 q 342 173 297 145 q 420 245 388 201 q 468 340 451 289 q 486 435 486 390 q 483 477 486 455 q 470 516 480 498 q 442 546 461 535 q 397 560 424 558 l 395 560 "},"5":{"x_min":31.953125,"x_max":780.625,"ha":808,"o":"m 238 3 l 31 22 l 51 159 q 165 145 115 149 q 254 142 215 141 q 325 147 294 143 q 384 161 356 152 q 509 242 472 188 q 533 308 531 273 q 516 374 534 342 q 419 457 488 424 q 325 485 377 477 q 212 491 272 493 l 140 571 l 194 892 l 261 951 l 780 945 l 772 806 q 632 812 686 810 q 531 816 577 815 q 439 816 486 818 q 322 814 393 815 l 290 629 q 389 614 343 624 q 476 584 436 604 q 572 523 530 559 q 638 441 613 487 q 672 300 675 373 q 625 164 669 227 q 542 82 593 116 q 426 27 491 48 q 238 3 340 3 "}}}
